<svg width="136" height="40" viewBox="0 0 136 40" fill="none" xmlns="http://www.w3.org/2000/svg">
<path d="M29.7999 15.8229V15.7581C29.7999 10.6485 33.4196 6.47816 38.5293 6.47816C44.1976 6.47816 47.0804 10.94 47.0804 16.082C47.0804 16.4545 47.0804 16.827 47.0156 17.2319H33.8974C34.0125 18.5011 34.6099 19.6778 35.5664 20.5198C36.523 21.3619 37.7659 21.8052 39.0394 21.7585C39.9537 21.7665 40.8593 21.5809 41.6967 21.2138C42.5341 20.8468 43.2843 20.3066 43.898 19.6288L46.3273 21.7585C45.4531 22.8412 44.3404 23.7071 43.0761 24.2886C41.8119 24.8701 40.4304 25.1516 39.0394 25.111C37.8093 25.158 36.5828 24.9496 35.4373 24.4988C34.2918 24.0481 33.2521 23.3648 32.3839 22.492C31.5158 21.6193 30.8379 20.5761 30.3932 19.4282C29.9484 18.2803 29.7464 17.0528 29.7999 15.8229ZM43.0235 14.5111C42.7563 11.8712 41.2015 9.80631 38.4969 9.80631C35.9947 9.80631 34.2375 11.7336 33.865 14.5111H43.0235Z" fill="#8318F5"/>
<path d="M49.8658 6.83451H53.9147V10.8834C55.0646 8.18683 57.1295 6.35675 60.2795 6.47821V10.8024H60.0447C56.4574 10.8024 53.9552 13.1345 53.9552 17.8717V24.6738H49.9063L49.8658 6.83451Z" fill="#8318F5"/>
<path d="M61.0571 15.7905V15.7258C61.0571 9.80633 65.0817 6.47817 69.3492 6.47817C70.5426 6.46387 71.7213 6.7429 72.7817 7.29073C73.8421 7.83857 74.7517 8.63844 75.4306 9.62008V0H79.528V24.6899H75.4306V21.71C74.7913 22.748 73.8966 23.6049 72.832 24.1989C71.7674 24.7928 70.5683 25.1041 69.3492 25.1029C65.1546 25.1029 61.0571 21.71 61.0571 15.7905ZM75.5034 15.7905V15.7258C75.5034 12.2761 73.0741 10.0088 70.329 10.0088C67.5839 10.0088 65.187 12.1466 65.187 15.7258V15.7905C65.187 19.2402 67.5515 21.5075 70.329 21.5075C73.1065 21.5075 75.5034 19.2078 75.5034 15.7905Z" fill="#8318F5"/>
<path d="M82.3372 15.8229V15.7582C82.3372 10.6485 85.9569 6.46199 91.0584 6.46199C96.7268 6.46199 99.6177 10.9238 99.6177 16.0659C99.6177 16.4384 99.6177 16.8109 99.5529 17.2158H86.4266C86.5436 18.4841 87.1415 19.6597 88.0976 20.5014C89.0537 21.343 90.2956 21.7871 91.5686 21.7424C92.4829 21.7504 93.3885 21.5647 94.2259 21.1977C95.0633 20.8306 95.8135 20.2904 96.4272 19.6127L98.8565 21.7424C97.9764 22.8354 96.8536 23.7082 95.5773 24.2915C94.301 24.8749 92.9062 25.1527 91.5038 25.1029C90.2811 25.1396 89.064 24.924 87.9283 24.4696C86.7926 24.0152 85.7627 23.3318 84.9027 22.4619C84.0427 21.592 83.3711 20.5544 82.9297 19.4135C82.4883 18.2727 82.2866 17.0532 82.3372 15.831M95.5527 14.5111C95.2774 11.8713 93.7226 9.80635 91.018 9.80635C88.5158 9.80635 86.7586 11.7336 86.3861 14.5111H95.5527Z" fill="#8318F5"/>
<path d="M102.395 0H106.485V14.7459L113.894 6.83447H118.866L111.764 14.0981L119.101 24.6899H114.299L109.019 16.9404L106.485 19.5803V24.6899H102.395V0Z" fill="#8318F5"/>
<path d="M119.207 19.5478V19.4831C119.207 15.6205 122.219 13.7337 126.584 13.7337C128.214 13.7174 129.835 13.9663 131.385 14.4706V14.0333C131.385 11.4987 129.831 10.1464 126.956 10.1464C125.193 10.1508 123.451 10.5318 121.846 11.2639L120.761 8.0248C122.866 7.03076 125.171 6.53214 127.499 6.56721C130.163 6.56721 132.163 7.27981 133.41 8.56735C134.657 9.85488 135.337 11.7417 135.337 14.0738V24.6899H131.353V22.4549C130.646 23.3122 129.753 23.9964 128.741 24.4553C127.729 24.9143 126.625 25.1358 125.515 25.1029C122.17 25.1029 119.19 23.1675 119.19 19.5883M131.434 18.3008V17.0861C130.139 16.6038 128.767 16.3623 127.385 16.3735C124.745 16.3735 123.191 17.491 123.191 19.3535V19.4183C123.191 21.1431 124.713 22.1229 126.673 22.1229C129.377 22.1229 131.442 20.5682 131.442 18.3008" fill="#8318F5"/>
<path d="M0 18.1308V24.6899H4.08934V15.7743L0 18.1308Z" fill="#FAA854"/>
<path d="M20.9002 6.47822C19.7158 6.46391 18.5463 6.74341 17.4963 7.2917C16.4464 7.84 15.5487 8.63999 14.8836 9.62013C14.3941 8.63398 13.628 7.81172 12.6789 7.25377C11.7299 6.69582 10.6388 6.42633 9.5391 6.47822C6.79398 6.47822 5.23922 7.9601 4.08934 9.55535V6.83452H0V12.5839L4.08934 14.9484V14.5759C4.08934 11.8389 5.6441 10.1465 7.91146 10.1465C10.1788 10.1465 11.5311 11.7012 11.5311 14.4788V24.69C12.6172 24.6878 13.6581 24.2554 14.4261 23.4875C15.1941 22.7195 15.6264 21.6786 15.6286 20.5925V14.5759C15.6286 11.7012 17.2481 10.1465 19.4426 10.1465C21.6371 10.1465 23.0623 11.6688 23.0623 14.5111V24.69H27.1597V13.2884C27.1597 8.90753 24.7871 6.47822 20.9002 6.47822Z" fill="#8318F5"/>
<path d="M100.7 37.3834H98.3839V39.7884H100.7V37.3834Z" fill="#FAA854"/>
<path d="M101.656 35.2213C101.642 34.5849 101.756 33.9521 101.991 33.3605C102.226 32.7689 102.578 32.2305 103.025 31.7774C103.472 31.3242 104.005 30.9655 104.594 30.7225C105.182 30.4795 105.813 30.3571 106.45 30.3627C107.145 30.3405 107.836 30.4745 108.472 30.7548C109.108 31.0351 109.674 31.4545 110.126 31.9822L108.806 33.3913C108.52 33.037 108.158 32.7504 107.748 32.5516C107.338 32.3529 106.889 32.247 106.434 32.2414C106.065 32.2558 105.703 32.3435 105.369 32.4993C105.035 32.6551 104.735 32.8758 104.487 33.1487C104.239 33.4215 104.048 33.741 103.925 34.0885C103.802 34.4361 103.749 34.8046 103.77 35.1727C103.748 35.5488 103.802 35.9255 103.931 36.2798C104.059 36.634 104.258 36.9585 104.515 37.2335C104.773 37.5085 105.084 37.7282 105.429 37.8792C105.774 38.0303 106.146 38.1096 106.523 38.1122C106.976 38.1018 107.423 37.9962 107.833 37.8023C108.243 37.6084 108.608 37.3305 108.904 36.9866L110.183 38.2337C109.544 38.9711 108.697 39.4989 107.754 39.7484C106.81 39.9979 105.813 39.9574 104.893 39.6323C103.973 39.3073 103.172 38.7126 102.595 37.9258C102.017 37.1391 101.69 36.1966 101.656 35.2213Z" fill="#FAA854"/>
<path d="M110.693 35.2213C110.693 33.9199 111.21 32.6717 112.13 31.7514C113.05 30.8311 114.299 30.3141 115.6 30.3141C116.902 30.3141 118.15 30.8311 119.07 31.7514C119.99 32.6717 120.507 33.9199 120.507 35.2213C120.497 35.8608 120.36 36.4919 120.105 37.0784C119.85 37.6649 119.482 38.1953 119.021 38.6392C118.561 39.0831 118.018 39.4317 117.422 39.665C116.827 39.8984 116.191 40.0119 115.552 39.999C114.917 40.012 114.286 39.8978 113.696 39.6633C113.106 39.4289 112.569 39.0787 112.116 38.6336C111.663 38.1884 111.304 37.6572 111.06 37.0712C110.815 36.4852 110.691 35.8563 110.693 35.2213ZM118.394 35.2213C118.412 34.8367 118.353 34.4522 118.218 34.0913C118.084 33.7304 117.877 33.4006 117.612 33.1219C117.346 32.8433 117.026 32.6215 116.672 32.4701C116.318 32.3188 115.937 32.2409 115.552 32.2414C115.173 32.2396 114.798 32.3154 114.45 32.4641C114.102 32.6129 113.789 32.8313 113.528 33.106C113.268 33.3807 113.067 33.7058 112.937 34.0612C112.807 34.4167 112.752 34.795 112.774 35.1728C112.756 35.5516 112.813 35.9304 112.944 36.2865C113.074 36.6427 113.275 36.969 113.534 37.2462C113.793 37.5233 114.105 37.7456 114.452 37.9C114.798 38.0543 115.172 38.1375 115.552 38.1446C115.932 38.1521 116.31 38.0806 116.661 37.9347C117.012 37.7888 117.33 37.5717 117.593 37.297C117.856 37.0223 118.06 36.6961 118.191 36.3388C118.322 35.9816 118.377 35.6011 118.353 35.2213" fill="#FAA854"/>
<path d="M121.917 30.5895H124.023V31.9823C124.311 31.4941 124.72 31.0886 125.211 30.8049C125.702 30.5212 126.257 30.3689 126.824 30.3627C127.391 30.3365 127.953 30.4756 128.442 30.7632C128.931 31.0508 129.325 31.4743 129.578 31.9823C129.922 31.4785 130.385 31.0672 130.926 30.7848C131.467 30.5023 132.069 30.3574 132.679 30.3627C134.687 30.3627 135.918 31.6341 135.918 33.8852V39.7561H133.813V34.5573C133.813 33.0917 133.132 32.3143 131.95 32.3143C130.768 32.3143 129.982 33.1241 129.982 34.5978V39.7885H127.869V34.5412C127.869 33.116 127.173 32.3143 126.006 32.3143C124.84 32.3143 124.039 33.1807 124.039 34.5978V39.7885H121.933L121.917 30.5895Z" fill="#FAA854"/>
</svg>
