<svg width="12" height="12" viewBox="0 0 12 12" fill="none" xmlns="http://www.w3.org/2000/svg">
<g clip-path="url(#clip0_316_7553)">
<path d="M8.32223 8.4906C8.51749 8.29534 8.834 8.29534 9.02926 8.4906L10.3525 9.81336C10.5478 10.0086 10.5478 10.3256 10.3525 10.5209C10.1572 10.7161 9.84024 10.7161 9.64498 10.5209L8.32223 9.19764C8.12697 9.00237 8.12697 8.68587 8.32223 8.4906Z" fill="white"/>
<path d="M5.69238 1.66642C8.00733 1.66668 9.88465 3.54383 9.88477 5.8588C9.88455 8.1737 8.00727 10.0509 5.69238 10.0512C4.79563 10.0511 3.96482 9.76814 3.2832 9.28849C3.43968 8.96221 3.60518 8.67456 3.79102 8.41837C4.32241 8.81372 4.9792 9.05114 5.69238 9.05119C7.45498 9.05092 8.88455 7.62141 8.88477 5.8588C8.88465 4.09611 7.45504 2.66668 5.69238 2.66642C4.83636 2.66648 4.05952 3.00458 3.48633 3.55314C3.32813 3.2733 3.18122 2.96217 3.04102 2.61076C3.76331 2.02047 4.68682 1.66647 5.69238 1.66642Z" fill="white"/>
<path d="M4.94025 6.34281C3.55929 6.79905 3.09944 7.25899 2.64319 8.63987C2.60565 8.7534 2.44512 8.7534 2.40759 8.63987C1.95135 7.25892 1.49141 6.79907 0.110534 6.34281C-0.00299057 6.30527 -0.00299057 6.14475 0.110534 6.10722C1.49149 5.65098 1.95134 5.19103 2.40759 3.81016C2.44513 3.69663 2.60566 3.69663 2.64319 3.81016C3.09943 5.19111 3.55937 5.65096 4.94025 6.10722C5.05377 6.14475 5.05377 6.30528 4.94025 6.34281Z" fill="white"/>
</g>
<defs>
<clipPath id="clip0_316_7553">
<rect width="12" height="12" fill="white"/>
</clipPath>
</defs>
</svg>
