<svg width="18" height="18" viewBox="0 0 18 18" fill="none" xmlns="http://www.w3.org/2000/svg">
<path fill-rule="evenodd" clip-rule="evenodd" d="M3.62895 13.576C3.66275 13.4743 3.80597 13.4744 3.83988 13.576C4.24871 14.8186 4.66133 15.2328 5.89848 15.6433C6.00022 15.6771 6.00022 15.8225 5.89848 15.8562C4.66126 16.2668 4.24873 16.681 3.83988 17.9236C3.80596 18.0251 3.66274 18.0253 3.62895 17.9236C3.22006 16.6808 2.8079 16.2669 1.57035 15.8562C1.46861 15.8224 1.46861 15.6771 1.57035 15.6433C2.80797 15.2327 3.22005 14.8187 3.62895 13.576ZM10.1807 3.25565C10.2928 2.91507 10.7727 2.91507 10.8848 3.25565C12.2477 7.3982 13.6221 8.77755 17.7471 10.1463C18.0861 10.2589 18.0861 10.7406 17.7471 10.8533C13.6218 12.222 12.2478 13.6016 10.8848 17.7439C10.7727 18.0845 10.2928 18.0845 10.1807 17.7439C8.8178 13.6014 7.44341 12.222 3.3184 10.8533C2.97975 10.7405 2.97975 10.259 3.3184 10.1463C7.44365 8.7776 8.81776 7.39791 10.1807 3.25565ZM3.55863 0.127715C3.6147 -0.0425718 3.85414 -0.0425718 3.9102 0.127715C4.59161 2.19887 5.27863 2.88871 7.34086 3.57303C7.51043 3.62933 7.51043 3.87025 7.34086 3.92654C5.27852 4.61084 4.59163 5.30082 3.9102 7.37186C3.85413 7.54214 3.61469 7.54214 3.55863 7.37186C2.87717 5.3005 2.18955 4.61092 0.126994 3.92654C-0.0423311 3.87015 -0.0423312 3.62942 0.126994 3.57303C2.18967 2.88868 2.87714 2.19896 3.55863 0.127715Z" fill="url(#paint0_linear_316_7546)"/>
<defs>
<linearGradient id="paint0_linear_316_7546" x1="0" y1="8.9999" x2="18.0013" y2="8.9999" gradientUnits="userSpaceOnUse">
<stop stop-color="#8318F5"/>
<stop offset="1" stop-color="#0E09FF"/>
</linearGradient>
</defs>
</svg>
